<?xml version="1.0" encoding="utf-8"?>
<svg viewBox="1.429 0 45.368 41.257" width="45.368" height="41.257" xmlns="http://www.w3.org/2000/svg">
  <defs>
    <linearGradient gradientUnits="userSpaceOnUse" x1="23.739" y1="1.935" x2="23.739" y2="39.321" id="gradient-0" gradientTransform="matrix(0.378933, -0.925423, 0.860663, 0.352427, 0.248816, 44.741805)">
      <stop offset="0" style="stop-color: rgba(236, 112, 67, 0.34);"/>
      <stop offset="0.673" style="stop-color: rgb(236, 113, 67);"/>
      <stop offset="1" style="stop-color: rgb(120, 29, 133);"/>
    </linearGradient>
    <linearGradient gradientUnits="userSpaceOnUse" x1="23.739" y1="1.935" x2="23.739" y2="39.321" id="gradient-1" gradientTransform="matrix(0.378933, -0.925423, 0.860663, 0.352427, 0.248816, 44.741805)">
      <stop offset="0" style="stop-color: rgba(236, 112, 67, 0.34);"/>
      <stop offset="0.548" style="stop-color: rgb(236, 113, 67);"/>
      <stop offset="1" style="stop-color: rgb(120, 29, 133);"/>
    </linearGradient>
    <linearGradient gradientUnits="userSpaceOnUse" x1="23.755" y1="-5.466" x2="23.755" y2="31.92" id="gradient-2" gradientTransform="matrix(0.344556, -0.938764, 0.481528, 0.164667, 8.512388, 62.00365)">
      <stop offset="0" style="stop-color: rgba(236, 112, 67, 0.07);"/>
      <stop offset="0.194" style="stop-color: rgb(236, 113, 67);"/>
      <stop offset="0.401" style="stop-color: rgb(225, 105, 73);"/>
      <stop offset="1" style="stop-color: rgb(120, 29, 133);"/>
    </linearGradient>
    <style>.cls-1{fill:url(#linear-gradient);}</style>
  </defs>
  <g id="Logos">
    <path class="cls-1" d="M 34.012 38.448 C 36.009 40.889 39.062 37.436 39.021 37.422 C 49.583 25.183 43.914 5.349 28.035 2.321 C 12.155 -0.706 -1.048 14.592 4.27 29.858 C 5.468 33.296 7.539 36.364 10.28 38.76 C 11.668 39.92 13.792 39.142 14.102 37.36 C 14.24 36.568 13.964 35.761 13.37 35.22 C 10.471 32.688 8.558 29.214 7.97 25.41 L 10.5 25.41 C 11.27 25.41 11.751 24.577 11.366 23.91 C 11.187 23.601 10.857 23.41 10.5 23.41 L 7.76 23.41 C 7.76 23.25 7.76 23.09 7.76 22.93 C 7.75 19.253 8.987 15.682 11.27 12.8 L 13.27 14.75 C 13.662 15.151 14.308 15.151 14.7 14.75 C 15.101 14.358 15.101 13.712 14.7 13.32 L 12.7 11.32 C 15.535 8.507 19.303 6.831 23.29 6.61 L 23.29 8.91 C 23.29 9.68 24.123 10.161 24.79 9.776 C 25.099 9.597 25.29 9.267 25.29 8.91 L 25.29 6.64 C 29.248 6.94 32.961 8.676 35.73 11.52 L 33.83 13.42 C 33.429 13.812 33.429 14.458 33.83 14.85 C 34.021 15.04 34.281 15.144 34.55 15.14 C 34.816 15.142 35.071 15.037 35.26 14.85 L 37.05 13.05 C 39.212 15.882 40.382 19.347 40.38 22.91 C 40.38 23.07 40.38 23.23 40.38 23.39 L 37.64 23.39 C 36.87 23.39 36.389 24.223 36.774 24.89 C 36.953 25.199 37.283 25.39 37.64 25.39 L 40.19 25.39 C 38.579 31.68 36.249 33.964 34.208 35.578 C 33.688 35.989 33.099 37.332 34.012 38.448 Z" style="fill: url(#gradient-0);"/>
    <path class="cls-1" d="M 34.012 38.448 C 36.009 40.889 39.062 37.436 39.021 37.422 C 49.583 25.183 43.914 5.349 28.035 2.321 C 12.155 -0.706 -1.048 14.592 4.27 29.858 C 5.468 33.296 7.539 36.364 10.28 38.76 C 11.668 39.92 13.792 39.142 14.102 37.36 C 14.24 36.568 13.964 35.761 13.37 35.22 C 10.471 32.688 8.558 29.214 7.97 25.41 L 10.5 25.41 C 11.27 25.41 11.751 24.577 11.366 23.91 C 11.187 23.601 10.857 23.41 10.5 23.41 L 7.76 23.41 C 7.76 23.25 7.76 23.09 7.76 22.93 C 7.75 19.253 8.987 15.682 11.27 12.8 L 13.27 14.75 C 13.662 15.151 14.308 15.151 14.7 14.75 C 15.101 14.358 15.101 13.712 14.7 13.32 L 12.7 11.32 C 15.535 8.507 19.303 6.831 23.29 6.61 L 23.29 8.91 C 23.29 9.68 24.123 10.161 24.79 9.776 C 25.099 9.597 25.29 9.267 25.29 8.91 L 25.29 6.64 C 29.248 6.94 32.961 8.676 35.73 11.52 L 33.83 13.42 C 33.429 13.812 33.429 14.458 33.83 14.85 C 34.021 15.04 34.281 15.144 34.55 15.14 C 34.816 15.142 35.071 15.037 35.26 14.85 L 37.05 13.05 C 39.212 15.882 40.382 19.347 40.38 22.91 C 40.38 23.07 40.38 23.23 40.38 23.39 L 37.64 23.39 C 36.87 23.39 36.389 24.223 36.774 24.89 C 36.953 25.199 37.283 25.39 37.64 25.39 L 40.19 25.39 C 38.579 31.68 36.249 33.964 34.208 35.578 C 33.688 35.989 33.099 37.332 34.012 38.448 Z" style="fill: url(#gradient-1);"/>
    <path class="cls-1" d="M 34.012 38.448 C 36.009 40.889 39.062 37.436 39.021 37.422 C 49.583 25.183 43.914 5.349 28.035 2.321 C 12.155 -0.706 -1.048 14.592 4.27 29.858 C 5.468 33.296 7.539 36.364 10.28 38.76 C 11.668 39.92 13.792 39.142 14.102 37.36 C 14.24 36.568 13.964 35.761 13.37 35.22 C 10.471 32.688 8.558 29.214 7.97 25.41 L 10.5 25.41 C 11.27 25.41 11.751 24.577 11.366 23.91 C 11.187 23.601 10.857 23.41 10.5 23.41 L 7.76 23.41 C 7.76 23.25 7.76 23.09 7.76 22.93 C 7.75 19.253 8.987 15.682 11.27 12.8 L 13.27 14.75 C 13.662 15.151 14.308 15.151 14.7 14.75 C 15.101 14.358 15.101 13.712 14.7 13.32 L 12.7 11.32 C 15.535 8.507 19.303 6.831 23.29 6.61 L 23.29 8.91 C 23.29 9.68 24.123 10.161 24.79 9.776 C 25.099 9.597 25.29 9.267 25.29 8.91 L 25.29 6.64 C 29.248 6.94 32.961 8.676 35.73 11.52 L 33.83 13.42 C 33.429 13.812 33.429 14.458 33.83 14.85 C 34.021 15.04 34.281 15.144 34.55 15.14 C 34.816 15.142 35.071 15.037 35.26 14.85 L 37.05 13.05 C 39.212 15.882 40.382 19.347 40.38 22.91 C 40.38 23.07 40.38 23.23 40.38 23.39 L 37.64 23.39 C 36.87 23.39 36.389 24.223 36.774 24.89 C 36.953 25.199 37.283 25.39 37.64 25.39 L 40.19 25.39 C 38.579 31.68 36.249 33.964 34.208 35.578 C 33.688 35.989 33.099 37.332 34.012 38.448 Z" style="fill: url(#gradient-2);"/>
  </g>
</svg>