<?xml version="1.0" encoding="utf-8"?>
<svg viewBox="1.429 0 45.368 41.257" width="45.368" height="41.257" xmlns="http://www.w3.org/2000/svg">
  <defs>
    <linearGradient gradientUnits="userSpaceOnUse" x1="23.739" y1="1.935" x2="23.739" y2="39.321" id="gradient-5" gradientTransform="matrix(0.999974, 0.007022, -0.006918, 0.999994, 1.531284, -0.166733)">
      <stop offset="0" style="stop-color: rgba(236, 112, 67, 0);"/>
      <stop offset="0.318" style="stop-color: rgb(236, 113, 67);"/>
      <stop offset="1" style="stop-color: rgb(246, 71, 45);"/>
    </linearGradient>
    <style>.cls-1{fill:url(#linear-gradient);}</style>
  </defs>
  <g id="Logos" transform="matrix(1, 0, 0, 1, -0.672505, -0.05173)">
    <path class="cls-1" d="M 35.012 38.448 C 37.009 40.889 40.062 37.436 40.021 37.422 C 50.583 25.183 44.914 5.349 29.035 2.321 C 13.155 -0.706 -0.048 14.592 5.27 29.858 C 6.468 33.296 8.539 36.364 11.28 38.76 C 12.668 39.92 14.792 39.142 15.102 37.36 C 15.24 36.568 14.964 35.761 14.37 35.22 C 11.471 32.688 9.558 29.214 8.97 25.41 L 11.5 25.41 C 12.27 25.41 12.751 24.577 12.366 23.91 C 12.187 23.601 11.857 23.41 11.5 23.41 L 8.76 23.41 C 8.76 23.25 8.76 23.09 8.76 22.93 C 8.75 19.253 9.987 15.682 12.27 12.8 L 14.27 14.75 C 14.662 15.151 15.308 15.151 15.7 14.75 C 16.101 14.358 16.101 13.712 15.7 13.32 L 13.7 11.32 C 16.535 8.507 20.303 6.831 24.29 6.61 L 24.29 8.91 C 24.29 9.68 25.123 10.161 25.79 9.776 C 26.099 9.597 26.29 9.267 26.29 8.91 L 26.29 6.64 C 30.248 6.94 33.961 8.676 36.73 11.52 L 34.83 13.42 C 34.429 13.812 34.429 14.458 34.83 14.85 C 35.021 15.04 35.281 15.144 35.55 15.14 C 35.816 15.142 36.071 15.037 36.26 14.85 L 38.05 13.05 C 40.212 15.882 41.382 19.347 41.38 22.91 C 41.38 23.07 41.38 23.23 41.38 23.39 L 38.64 23.39 C 37.87 23.39 37.389 24.223 37.774 24.89 C 37.953 25.199 38.283 25.39 38.64 25.39 L 41.19 25.39 C 39.579 31.68 37.249 33.964 35.208 35.578 C 34.688 35.989 34.099 37.332 35.012 38.448 Z" style="fill: url(#gradient-5);"/>
  </g>
</svg>